<?xml version="1.0" encoding="UTF-8"?>
<svg width="20px" height="20px" viewBox="0 0 20 20" version="1.1" xmlns="http://www.w3.org/2000/svg" xmlns:xlink="http://www.w3.org/1999/xlink">
    <!-- Generator: Sketch 63.1 (92452) - https://sketch.com -->
    <title>icon2@3x</title>
    <desc>Created with Sketch.</desc>
    <g id="icon2" stroke="none" stroke-width="1" fill="none" fill-rule="evenodd">
        <path d="M5,3.97655013 C5,3.43721638 5.44771525,3 6,3 C6.55228475,3 7,3.43721638 7,3.97655013 L7,16.0234499 C7,16.5627836 6.55228475,17 6,17 C5.44771525,17 5,16.5627836 5,16.0234499 L5,3.97655013 Z M14,3.97655013 C14,3.43721638 14.4477153,3 15,3 C15.5522847,3 16,3.43721638 16,3.97655013 L16,16.0234499 C16,16.5627836 15.5522847,17 15,17 C14.4477153,17 14,16.5627836 14,16.0234499 L14,3.97655013 Z" id="播放-暂停" fill="#FFFFFF" fill-rule="nonzero"></path>
    </g>
</svg>