<?xml version="1.0" encoding="UTF-8"?>
<svg width="20px" height="20px" viewBox="0 0 20 20" version="1.1" xmlns="http://www.w3.org/2000/svg" xmlns:xlink="http://www.w3.org/1999/xlink">
    <!-- Generator: Sketch 63.1 (92452) - https://sketch.com -->
    <title>icon1@3x</title>
    <desc>Created with Sketch.</desc>
    <g id="icon1" stroke="none" stroke-width="1" fill="none" fill-rule="evenodd">
        <path d="M16,2.25 C16.9664983,2.25 17.75,3.03350169 17.75,4 L17.75,4 L17.75,16 C17.75,16.9664983 16.9664983,17.75 16,17.75 L16,17.75 L4,17.75 C3.03350169,17.75 2.25,16.9664983 2.25,16 L2.25,16 L2.25,4 C2.25,3.03350169 3.03350169,2.25 4,2.25 L4,2.25 Z M16,3.75 L4,3.75 C3.86192881,3.75 3.75,3.86192881 3.75,4 L3.75,4 L3.75,16 C3.75,16.1380712 3.86192881,16.25 4,16.25 L4,16.25 L16,16.25 C16.1380712,16.25 16.25,16.1380712 16.25,16 L16.25,16 L16.25,4 C16.25,3.86192881 16.1380712,3.75 16,3.75 L16,3.75 Z M13.9865723,10.25 C14.366268,10.25 14.6800632,10.5321539 14.7297256,10.8982294 L14.7365723,11 L14.7365723,14.0046387 C14.7365723,14.3843344 14.4544184,14.6981296 14.0883428,14.7477921 L13.9865723,14.7546387 L11,14.7546387 C10.5857864,14.7546387 10.25,14.4188522 10.25,14.0046387 C10.25,13.6249429 10.5321539,13.3111477 10.8982294,13.2614853 L11,13.2546387 L13.2365723,13.2556387 L13.2365723,11 C13.2365723,10.6203042 13.5187261,10.306509 13.8848017,10.2568466 L13.9865723,10.25 Z M8.98657227,5.25 C9.40078583,5.25 9.73657227,5.58578644 9.73657227,6 C9.73657227,6.37969577 9.45441838,6.69349096 9.08834282,6.74315338 L8.98657227,6.75 L6.75,6.749 L6.75,9.00463867 C6.75,9.38433444 6.46784612,9.69812963 6.10177056,9.74779206 L6,9.75463867 C5.62030423,9.75463867 5.30650904,9.47248479 5.25684662,9.10640923 L5.25,9.00463867 L5.25,6 C5.25,5.62030423 5.53215388,5.30650904 5.89822944,5.25684662 L6,5.25 L8.98657227,5.25 Z" id="形状结合" fill="#FFFFFF" fill-rule="nonzero"></path>
    </g>
</svg>